<svg viewBox="0 0 770 760" fill="white" xmlns="http://www.w3.org/2000/svg"   width="10%"    height="10%"   preserveAspectRatio="x200Y200 meet">
<path d="M302.243 6.05219C191.52 25.0527 82.7925 106.755 27.93 214.108C1.995 262.559 0 276.809 0 376.562C0 478.215 1.995 489.615 28.9275 542.816C86.7825 653.969 194.513 729.971 321.195 747.072C504.735 771.772 665.333 691.97 742.14 538.066C765.083 491.515 768.075 474.415 768.075 376.562C768.075 277.759 765.083 261.609 741.143 213.158C667.328 62.1036 482.79 -24.3486 302.243 6.05219ZM463.838 24.1027C479.798 27.9028 489.773 38.353 491.768 52.6034C494.76 71.6039 492.765 73.504 476.805 67.8038C466.83 63.0537 424.935 58.3036 384.038 56.4035C320.198 53.5535 303.24 56.4035 269.325 74.454C247.38 86.8043 223.44 108.655 216.458 122.905C194.513 166.606 217.455 194.157 309.225 238.808C420.945 292.01 509.723 353.761 526.68 388.912C548.625 434.514 555.608 513.366 542.64 559.917C528.675 610.268 480.795 672.02 428.925 703.371C399.998 722.371 377.055 728.071 338.153 728.071C245.385 728.071 111.72 648.269 62.8425 562.767C55.86 550.417 64.8375 554.217 90.7725 574.167C199.5 655.869 336.158 685.32 409.973 642.569C479.798 600.768 505.733 519.066 463.838 469.664C435.908 435.464 323.19 382.262 214.463 353.761C103.74 323.361 64.8375 304.36 46.8825 269.209C13.965 203.657 146.633 71.6039 289.275 28.8528C332.168 15.5524 422.94 13.6524 463.838 24.1027ZM641.393 123.855C665.333 145.706 698.25 190.357 716.205 224.558C745.133 280.609 748.125 293.91 748.125 376.562C748.125 456.364 745.133 473.465 719.198 526.666C674.31 619.768 576.555 695.77 461.843 728.071C438.9 734.721 441.893 729.021 487.778 687.22C568.575 611.218 592.515 518.116 558.6 408.863C543.638 358.512 509.723 322.411 441.893 282.509C420.945 271.109 403.988 257.809 403.988 254.959C403.988 251.159 416.955 239.758 431.918 230.258C472.815 204.607 515.708 135.256 521.693 85.8543L526.68 44.0532L562.59 64.9537C582.54 75.404 617.453 102.955 641.393 123.855ZM458.85 83.0042L502.74 93.4545L477.803 140.006L452.865 187.507L400.995 146.656C372.068 123.855 337.155 98.2047 324.188 89.6544C299.25 73.504 299.25 73.504 357.105 73.504C389.025 72.554 434.91 77.3041 458.85 83.0042ZM363.09 140.956C400.995 168.506 431.918 195.107 429.923 200.807C428.925 205.557 415.958 216.008 401.993 223.608C380.048 235.958 371.07 235.958 331.17 220.758C272.318 199.857 234.413 171.357 234.413 148.556C234.413 130.505 270.323 91.5544 286.283 91.5544C290.273 91.5544 325.185 114.355 363.09 140.956ZM97.755 338.561C120.698 348.061 183.54 368.012 237.405 382.262C354.113 412.663 449.873 465.864 459.848 505.765C468.825 540.916 453.863 577.017 423.938 594.118C401.993 605.518 391.02 605.518 344.138 592.218C265.335 570.367 170.573 513.366 99.75 447.814C13.965 368.012 1.995 348.061 9.975 299.61L16.9575 260.659L35.91 291.06C46.8825 308.16 73.815 328.111 97.755 338.561ZM154.613 521.916C211.47 561.817 330.173 614.068 363.09 614.068C402.99 614.068 402.99 629.269 363.09 637.819C289.275 653.019 181.545 614.068 78.8025 535.216C39.9 505.765 24.9375 486.765 19.95 462.064C16.9575 444.014 10.9725 418.363 7.98 405.063C3.99 386.062 13.965 392.712 60.8475 439.264C93.765 470.614 135.66 507.665 154.613 521.916Z" fill="black"/>
</svg>
